<svg width="25" height="20" viewBox="0 0 25 20" fill="none" xmlns="http://www.w3.org/2000/svg">
<g clip-path="url(#clip0)">
<path d="M24.9991 2.3741C24.0254 2.78177 23.0273 3.04556 22.0536 3.16547C23.1734 2.51799 23.9037 1.58273 24.3175 0.383693C23.2951 0.959233 22.1997 1.36691 21.0555 1.58273C20.0332 0.527578 18.7917 0 17.3068 0C15.8949 0 14.6778 0.503597 13.6797 1.48681C12.6816 2.47002 12.1704 3.66906 12.1704 5.05995C12.1704 5.44365 12.2191 5.82734 12.2922 6.21103C10.1987 6.11511 8.22692 5.58753 6.40122 4.65228C4.57551 3.71703 3.01757 2.47002 1.72741 0.935252C1.2649 1.72662 1.02147 2.56595 1.02147 3.47722C1.02147 4.34053 1.21621 5.15588 1.63004 5.8753C2.04386 6.6187 2.60375 7.21823 3.28535 7.67386C2.45769 7.64988 1.67872 7.43405 0.972784 7.02638V7.09832C0.972784 8.32134 1.36227 9.3765 2.14124 10.3118C2.9202 11.223 3.89391 11.8225 5.08671 12.0623C4.64854 12.1823 4.18603 12.2302 3.74786 12.2302C3.45574 12.2302 3.13929 12.2062 2.77415 12.1583C3.0906 13.1655 3.69917 14.0048 4.57551 14.6523C5.45185 15.2998 6.4499 15.6355 7.56967 15.6595C5.71962 17.0983 3.57746 17.8177 1.21621 17.8177C0.753699 17.8177 0.339873 17.7938 -0.0252686 17.7458C2.36032 19.2566 4.98934 20 7.83744 20C9.66314 20 11.3671 19.7122 12.9738 19.1607C14.5804 18.5851 15.9436 17.8417 17.0633 16.8825C18.1831 15.9233 19.1812 14.8201 19.9845 13.5971C20.8121 12.3501 21.4207 11.0552 21.8102 9.71223C22.1997 8.3693 22.4187 7.0024 22.4187 5.65947C22.4187 5.3717 22.4187 5.15588 22.3944 5.01199C23.4411 4.26858 24.2931 3.40528 24.9991 2.3741Z" fill="black"/>
</g>
<defs>
<clipPath id="clip0">
<rect width="25" height="20" fill="white"/>
</clipPath>
</defs>
</svg>
